<?xml version="1.0" standalone="no"?>
<!DOCTYPE svg PUBLIC "-//W3C//DTD SVG 20010904//EN"
 "http://www.w3.org/TR/2001/REC-SVG-20010904/DTD/svg10.dtd">
<svg version="1.0" xmlns="http://www.w3.org/2000/svg"
 width="512.000000pt" height="512.000000pt" viewBox="0 0 512.000000 512.000000"
 preserveAspectRatio="xMidYMid meet">
<metadata>
Created by potrace 1.14, written by Peter Selinger 2001-2017
</metadata>
<g transform="translate(0.000000,512.000000) scale(0.100000,-0.100000)"
fill="#000000" stroke="none">
<path d="M3471 5091 c-40 -42 -71 -132 -71 -201 0 -68 -15 -87 -25 -32 -16 91
-77 182 -122 182 -29 0 -37 -31 -30 -111 3 -40 15 -77 36 -114 34 -60 38 -75
18 -75 -7 0 -22 19 -34 43 -62 124 -190 199 -209 121 -8 -31 12 -109 38 -151
24 -41 20 -41 -34 -3 -82 58 -148 58 -148 0 0 -61 63 -150 140 -200 53 -34 60
-49 34 -71 -13 -11 -19 -8 -42 22 -93 122 -242 196 -266 133 -23 -59 97 -220
200 -269 l35 -16 -19 -31 c-11 -16 -23 -28 -28 -27 -5 2 -26 25 -47 52 -74 93
-214 176 -255 150 -27 -16 -26 -40 4 -101 33 -67 132 -168 197 -200 48 -24 51
-29 41 -56 -5 -12 -19 -4 -66 35 -165 137 -339 156 -273 30 24 -47 122 -128
200 -167 41 -20 75 -40 75 -44 0 -8 -21 -70 -24 -70 -1 0 -33 31 -71 68 -128
125 -305 206 -345 157 -23 -27 -1 -68 80 -147 60 -58 99 -87 163 -118 46 -22
95 -40 109 -40 13 0 27 -2 30 -5 6 -7 -15 -75 -23 -75 -4 0 -30 15 -58 34
-164 110 -392 127 -354 25 6 -16 8 -29 4 -29 -17 0 -142 -124 -172 -171 -18
-27 -36 -49 -40 -49 -14 0 -54 73 -42 77 59 20 161 139 215 251 34 71 48 155
29 166 -61 38 -234 -151 -286 -312 -17 -52 -17 -53 -37 -35 -44 40 -43 50 16
113 91 99 152 256 112 289 -42 35 -168 -72 -224 -191 -28 -59 -41 -68 -61 -44
-10 12 -5 24 24 62 65 84 105 188 105 270 0 58 -8 74 -38 74 -52 0 -145 -134
-177 -255 -8 -32 -16 -59 -17 -61 -2 -1 -19 10 -37 26 l-35 28 28 32 c67 81
119 235 99 295 -7 22 -17 31 -36 33 -54 7 -154 -136 -172 -245 -4 -24 -11 -43
-16 -43 -14 0 -69 29 -69 37 0 3 16 23 36 45 86 96 116 276 47 286 -27 4 -88
-49 -113 -99 -11 -21 -23 -40 -27 -42 -5 -3 -7 32 -5 76 3 95 -10 130 -49 135
-55 6 -109 -105 -112 -229 -1 -32 -3 -59 -4 -59 -1 0 -13 4 -27 10 -25 9 -25
10 -11 44 52 124 -29 335 -92 240 -19 -30 -25 -142 -10 -201 7 -26 6 -33 -6
-33 -9 0 -18 13 -22 30 -11 50 -82 146 -133 180 -57 38 -76 36 -80 -8 -4 -37
28 -98 81 -159 18 -20 25 -34 17 -31 -78 29 -215 33 -246 7 -24 -19 -16 -48
19 -69 46 -29 98 -41 180 -42 l72 0 -39 -14 c-102 -36 -140 -91 -78 -115 38
-15 145 -3 212 25 54 21 57 22 95 5 43 -19 42 -20 -39 -39 -89 -20 -166 -68
-166 -102 0 -23 54 -48 105 -48 65 0 172 31 230 65 l56 34 35 -22 c18 -12 34
-25 34 -28 0 -3 -27 -11 -60 -17 -163 -30 -263 -121 -175 -158 73 -30 221 -8
327 48 54 29 60 30 75 15 15 -15 14 -16 -13 -22 -161 -35 -250 -102 -195 -146
50 -41 203 -27 299 26 l46 26 45 -46 46 -45 -90 0 c-210 -1 -317 -67 -203
-126 65 -34 272 -35 352 -2 27 11 31 9 54 -18 l25 -29 -124 -6 c-104 -6 -229
-29 -229 -44 0 -19 55 -105 67 -105 14 0 15 -2 1 -17 -17 -20 -32 -149 -19
-157 5 -3 11 20 14 51 3 31 18 80 34 111 68 136 143 109 143 -51 l0 -60 29 40
c46 63 74 81 130 81 42 0 50 -4 60 -25 15 -33 14 -34 -14 -27 -23 6 -25 4 -25
-32 -1 -22 -9 -63 -19 -91 -24 -70 -6 -68 39 3 57 90 131 119 146 57 4 -13 3
-50 -1 -81 -4 -32 -7 -69 -8 -84 0 -16 -3 -28 -8 -28 -4 0 -21 -23 -39 -51
-24 -40 -28 -54 -19 -65 18 -22 23 -18 41 34 25 70 97 171 140 195 36 22 36
22 58 2 20 -18 22 -27 18 -85 -3 -41 -15 -87 -32 -123 -14 -32 -26 -60 -26
-63 0 -3 -14 -25 -30 -50 -24 -33 -27 -44 -15 -44 8 0 15 5 15 11 0 16 53 89
98 134 39 39 39 40 24 72 -12 26 -13 35 -3 47 29 35 135 29 257 -14 75 -26 87
-9 21 28 -212 120 -196 242 24 187 24 -6 28 -4 34 23 4 21 16 35 34 43 l28 13
-24 34 c-26 40 -29 60 -9 87 12 17 18 18 68 6 33 -7 83 -30 123 -57 47 -30 75
-42 88 -38 17 5 16 9 -16 43 -20 20 -49 59 -64 88 l-28 51 -74 -34 c-41 -19
-76 -32 -79 -30 -2 3 0 22 5 43 9 38 9 38 71 46 59 8 62 10 62 37 0 45 21 55
80 36 48 -16 52 -16 90 4 22 11 40 23 40 27 0 14 -33 128 -40 136 -8 9 -129
-27 -182 -54 -51 -26 -62 -25 -53 8 10 43 24 53 69 53 50 0 139 23 171 44 13
9 30 16 38 16 22 0 110 67 125 95 40 77 -109 80 -271 7 -37 -17 -67 -29 -67
-27 0 2 10 29 22 60 l22 57 57 -6 c146 -17 339 69 289 129 -28 34 -135 42
-248 19 -33 -7 -33 -7 -21 20 12 25 15 27 53 19 150 -30 376 35 376 108 0 26
-24 40 -92 51 -50 9 -78 8 -138 -5 -41 -8 -83 -19 -94 -23 -17 -6 -17 -5 -6
17 7 13 23 38 36 56 l24 32 32 -17 c70 -36 276 -6 334 49 75 71 -47 112 -217
73 -39 -9 -72 -14 -75 -11 -2 2 16 22 40 45 42 39 46 40 82 31 69 -20 220 15
253 58 20 24 20 28 5 44 -20 22 -96 32 -157 21 -27 -6 -50 -6 -53 -1 -3 5 12
9 34 9 84 0 258 120 250 173 -7 50 -132 22 -227 -50 -29 -23 -33 -24 -27 -7
15 39 36 129 36 156 0 37 -20 78 -38 78 -8 0 -26 -13 -41 -29z m-301 -461 c0
-5 -2 -10 -4 -10 -3 0 -8 5 -11 10 -3 6 -1 10 4 10 6 0 11 -4 11 -10z m-1750
-400 c0 -28 -4 -40 -14 -40 -24 0 -27 17 -9 49 10 17 19 31 21 31 1 0 2 -18 2
-40z m1113 -555 c36 -13 88 -27 116 -31 59 -8 62 -10 50 -42 l-9 -24 -35 20
c-19 12 -74 28 -122 37 -123 23 -119 22 -98 45 22 25 19 25 98 -5z m-217 -160
c5 -17 -67 -65 -97 -65 -46 0 -42 16 14 49 52 30 78 35 83 16z m344 -74 c0
-28 -9 -30 -60 -10 l-45 17 45 4 c25 3 48 5 53 6 4 1 7 -7 7 -17z"/>
<path d="M4506 3979 c-22 -5 -48 -17 -58 -26 -19 -17 -36 -13 -79 18 -13 10
-20 8 -37 -9 -24 -24 -42 -28 -59 -11 -18 18 -59 -1 -76 -36 -20 -43 -51 -53
-80 -28 -26 23 -57 19 -57 -6 0 -9 -6 -26 -14 -36 -13 -18 -18 -18 -50 -7 -47
17 -94 -5 -102 -48 -4 -16 -14 -36 -24 -45 -16 -15 -21 -15 -46 -2 -25 13 -30
12 -65 -12 -21 -14 -38 -32 -39 -39 0 -7 -7 -26 -15 -43 -14 -26 -20 -29 -48
-24 -44 7 -75 -20 -79 -70 -4 -47 -28 -66 -59 -46 -20 12 -27 8 -97 -66 -94
-99 -119 -132 -124 -163 -5 -37 -39 -37 -103 -1 -67 38 -113 29 -67 -12 29
-27 64 -105 57 -127 -14 -44 -130 -12 -235 65 -55 40 -57 41 -88 19 -23 -16
-23 -16 40 -46 34 -16 84 -45 111 -64 45 -33 51 -34 83 -24 46 16 56 4 21 -25
-24 -22 -26 -27 -15 -50 10 -21 9 -29 -5 -43 -23 -22 -131 -19 -213 6 -33 10
-68 16 -78 12 -14 -5 -3 -14 47 -38 36 -18 88 -54 117 -81 40 -38 53 -45 57
-32 15 52 47 64 90 33 24 -17 32 -17 58 -6 21 8 30 19 31 36 2 64 6 79 27 103
20 24 25 25 49 14 31 -13 72 -68 89 -117 21 -62 34 -38 34 64 l0 96 -57 -7
c-61 -6 -67 -2 -44 30 13 18 18 19 59 8 24 -7 61 -10 81 -6 32 5 40 2 69 -29
31 -33 77 -131 77 -164 0 -8 5 -14 10 -14 12 0 13 -5 -5 54 -37 122 1 239 68
205 12 -6 32 -22 43 -36 16 -18 27 -23 43 -18 25 8 38 49 21 70 -24 29 -140
62 -282 80 -53 7 -55 10 -29 42 l18 22 50 -19 c117 -44 296 -47 360 -5 30 20
29 28 -8 59 -39 33 -123 57 -223 65 l-79 6 47 43 c45 42 48 43 69 28 74 -53
169 -86 253 -86 146 0 89 108 -86 163 -38 12 -70 25 -70 29 0 4 13 14 29 22
26 14 30 14 47 -5 50 -56 187 -109 285 -112 70 -2 99 11 99 43 0 43 -118 117
-227 141 -29 7 -53 15 -53 18 0 9 77 51 93 51 7 0 24 -12 38 -26 65 -70 266
-127 330 -94 51 28 -10 93 -126 136 -38 14 -79 30 -90 34 -16 6 -7 10 37 20
53 12 58 12 88 -10 17 -12 59 -31 92 -41 165 -52 232 18 87 90 -34 17 -68 31
-76 31 -7 0 -13 5 -13 11 0 7 7 8 18 4 99 -42 290 -18 308 37 6 21 -8 36 -51
50 -30 9 -154 7 -199 -3z"/>
<path d="M3150 3559 c0 -6 13 -25 29 -42 16 -18 40 -45 53 -60 21 -25 25 -27
43 -14 18 14 18 16 -20 71 -34 49 -42 56 -72 56 -18 0 -33 -5 -33 -11z"/>
<path d="M881 3384 c-25 -18 -51 -75 -51 -114 0 -58 -12 -63 -30 -11 -34 102
-91 154 -128 117 -12 -11 -18 -39 -20 -90 -4 -68 3 -106 36 -194 3 -10 -2 -13
-19 -10 -15 2 -25 11 -27 23 -19 125 -113 253 -165 224 -33 -19 -17 -126 28
-193 14 -20 25 -39 25 -41 0 -14 -26 -1 -58 26 -49 44 -133 79 -187 79 -54 0
-62 -11 -38 -51 24 -42 84 -84 168 -118 53 -21 71 -33 73 -49 4 -26 8 -27 57
-6 51 21 99 15 103 -12 2 -18 12 -22 53 -27 27 -4 61 -2 75 3 40 16 104 13
104 -5 0 -27 99 -39 161 -19 62 21 99 13 99 -21 0 -35 53 -49 112 -27 61 22
98 11 98 -28 0 -22 6 -33 23 -39 12 -5 40 -17 62 -27 23 -10 65 -18 98 -18 46
-1 61 -5 69 -19 9 -18 11 -17 37 6 14 14 51 37 81 51 30 15 46 24 35 20 -49
-15 -154 -26 -187 -20 -20 4 -47 15 -60 26 -19 15 -21 22 -12 37 6 10 14 32
18 48 l7 30 -80 -3 c-86 -4 -121 7 -121 38 0 11 11 30 25 42 35 30 33 58 -3
58 -16 0 -50 6 -75 14 -53 16 -56 12 -37 -53 5 -19 9 -36 7 -37 -3 -3 -97 17
-97 20 0 1 7 24 16 50 13 39 14 52 4 77 -11 25 -10 32 4 48 15 17 16 26 6 79
-30 152 -108 162 -141 17 -12 -54 -8 -194 6 -229 8 -17 5 -19 -34 -13 -24 3
-45 7 -47 10 -2 2 3 23 11 47 22 61 19 184 -4 237 -24 52 -50 68 -80 47z m-37
-301 c4 -13 4 -23 -1 -23 -22 1 -28 19 -24 70 l5 55 6 -40 c3 -22 10 -50 14
-62z"/>
<path d="M1262 3343 c-14 -22 -42 -103 -42 -125 0 -2 19 -3 43 -3 23 0 58 -3
78 -7 34 -6 36 -5 30 15 -17 51 -67 146 -78 147 -6 0 -20 -12 -31 -27z"/>
<path d="M1510 3283 c1 -5 10 -24 21 -43 l20 -35 -7 35 c-7 41 -12 50 -25 50
-5 0 -9 -3 -9 -7z"/>
<path d="M1460 3083 c-8 -3 -26 -10 -39 -15 -13 -5 -22 -11 -19 -14 8 -7 98
19 98 28 0 9 -17 9 -40 1z"/>
<path d="M1990 3045 c-9 -11 -10 -19 -2 -27 13 -13 28 -4 35 22 6 24 -15 27
-33 5z"/>
<path d="M1640 3002 c0 -5 -11 -15 -25 -22 -14 -7 -25 -21 -25 -30 0 -15 5
-16 63 -2 96 23 96 23 52 42 -45 21 -65 24 -65 12z"/>
<path d="M1874 2878 c-11 -11 -37 -30 -59 -40 -38 -18 -38 -19 -9 -14 17 3 54
8 82 12 60 8 73 28 33 49 -26 13 -30 13 -47 -7z"/>
<path d="M2557 2853 c-2 -10 -8 -26 -12 -35 -12 -29 20 -22 40 8 14 22 15 28
4 35 -20 13 -26 11 -32 -8z"/>
<path d="M1970 2840 c0 -6 7 -10 15 -10 8 0 15 2 15 4 0 2 -7 6 -15 10 -8 3
-15 1 -15 -4z"/>
<path d="M3406 2783 c8 -47 7 -45 28 -30 15 11 16 17 5 40 -19 42 -41 35 -33
-10z"/>
<path d="M3221 2734 c21 -41 39 -82 39 -92 0 -10 3 -13 10 -6 7 7 3 23 -10 49
-12 22 -26 59 -32 83 -7 30 -16 42 -28 42 -16 0 -13 -11 21 -76z"/>
<path d="M2050 2771 c0 -11 -17 -34 -37 -51 l-38 -31 30 8 c17 4 54 7 83 7 54
-2 65 9 35 33 -71 55 -73 56 -73 34z"/>
<path d="M2736 2765 c-8 -21 11 -26 54 -16 l35 8 -28 12 c-38 15 -54 14 -61
-4z"/>
<path d="M3012 2757 c-11 -13 -10 -23 11 -59 27 -47 50 -108 67 -177 l12 -44
20 21 21 20 -20 29 c-32 45 -65 114 -82 172 -14 46 -18 51 -29 38z"/>
<path d="M2800 2730 c-12 -8 -12 -10 2 -15 20 -8 41 2 33 16 -8 11 -16 11 -35
-1z"/>
<path d="M2450 2674 c-34 -31 -38 -38 -27 -55 6 -10 16 -18 21 -16 9 3 58 107
50 107 -2 0 -22 -16 -44 -36z"/>
<path d="M1865 2650 c-3 -6 1 -7 9 -4 18 7 21 14 7 14 -6 0 -13 -4 -16 -10z"/>
<path d="M1540 2620 c-19 -4 -73 -25 -120 -46 -73 -33 -97 -39 -168 -41 -60
-2 -100 -10 -143 -27 -90 -36 -168 -87 -195 -126 l-24 -35 0 -315 c0 -311 1
-316 24 -365 13 -27 41 -66 62 -86 36 -33 131 -102 153 -111 5 -1 22 -46 39
-98 99 -313 275 -707 404 -905 156 -239 336 -367 607 -434 120 -30 130 -31
355 -31 276 0 358 9 502 55 248 79 405 220 599 540 123 203 275 530 356 769
38 112 48 132 79 154 70 51 113 98 136 147 23 49 24 54 24 364 0 296 -1 315
-20 346 -31 51 -128 109 -252 151 l-68 23 16 -31 c14 -27 14 -31 -2 -49 -49
-54 -279 9 -372 101 l-41 41 -40 -28 c-22 -15 -40 -31 -41 -35 0 -5 16 -8 35
-8 40 0 134 -33 186 -66 120 -75 92 -161 -43 -136 -82 15 -193 68 -229 110
l-31 35 -49 -49 c-27 -26 -49 -51 -49 -55 0 -3 37 -9 83 -12 97 -7 191 -37
237 -76 41 -34 36 -55 -17 -78 -71 -29 -312 2 -357 47 -16 16 -43 12 -50 -7
-9 -23 6 -29 83 -37 147 -15 286 -64 318 -113 15 -23 15 -26 -6 -46 -20 -20
-31 -22 -154 -22 -128 0 -131 -1 -102 -16 16 -9 45 -20 63 -23 17 -4 32 -11
32 -15 0 -8 -145 -23 -400 -41 -201 -15 -735 -9 -752 8 -13 13 -48 17 -48 4 0
-7 -243 10 -340 24 l-45 7 75 36 c42 20 94 44 118 54 23 10 42 23 42 29 0 6
-7 7 -17 2 -48 -20 -205 -55 -277 -60 -89 -6 -158 9 -164 37 -9 50 135 139
301 185 50 14 110 35 132 45 22 10 55 21 73 25 41 8 41 20 0 27 -18 3 -44 8
-58 12 -19 5 -41 -3 -85 -30 -88 -52 -198 -84 -320 -92 -182 -11 -220 30 -113
122 32 27 37 35 20 30 -12 -4 -47 -7 -77 -8 -65 -1 -94 18 -76 51 20 38 106
104 186 142 77 38 79 46 5 30z"/>
<path d="M2187 2599 c-63 -63 -276 -98 -340 -56 -26 17 -27 17 -94 -29 -55
-36 -62 -44 -38 -39 92 17 185 26 218 21 20 -4 75 1 123 11 68 13 103 15 175
7 49 -5 89 -7 89 -4 0 9 -92 120 -98 119 -4 -1 -20 -14 -35 -30z"/>
<path d="M2559 2527 c-38 -35 -45 -47 -38 -64 4 -11 12 -24 17 -27 9 -5 88 91
99 121 11 28 -34 11 -78 -30z"/>
<path d="M2880 2540 c-10 -18 -8 -25 7 -43 10 -12 19 -24 20 -25 1 -2 8 0 17
5 12 7 11 13 -9 47 -23 37 -23 38 -35 16z"/>
<path d="M2355 2385 c-16 -7 -39 -17 -50 -21 -15 -5 -5 -10 40 -19 80 -15 93
-8 58 33 -16 18 -21 19 -48 7z"/>
<path d="M3001 2354 c-12 -15 -21 -31 -21 -37 0 -6 11 4 25 23 14 19 25 35 25
37 0 9 -11 0 -29 -23z"/>
<path d="M2870 2220 c13 -23 11 -23 47 -9 22 8 24 12 13 19 -8 6 -28 10 -43
10 -25 0 -27 -2 -17 -20z"/>
<path d="M2109 2157 c-13 -10 8 -12 107 -12 93 0 124 3 124 13 0 17 -208 16
-231 -1z"/>
<path d="M2640 2162 c0 -8 43 -32 57 -32 3 0 -6 9 -20 20 -27 22 -37 25 -37
12z"/>
<path d="M3047 2049 c-22 -11 -37 -23 -34 -25 2 -3 46 1 96 8 l93 12 -44 13
c-56 17 -66 16 -111 -8z"/>
</g>
</svg>
